<svg width="104" height="104" viewBox="0 0 104 104" fill="none" xmlns="http://www.w3.org/2000/svg">
<circle cx="52" cy="52" r="52" fill="#25EA0F"/>
<path d="M46.7669 34.1765L48.4976 37.2776C50.0594 40.0762 49.4324 43.7476 46.9725 46.2075C46.9725 46.2075 43.9887 49.1913 49.3987 54.6013C54.8085 60.0112 57.7925 57.0275 57.7925 57.0275C60.2524 54.5675 63.9237 53.9405 66.7224 55.5024L69.8235 57.2331C74.0495 59.5916 74.5485 65.518 70.834 69.2325C68.602 71.4646 65.8677 73.2013 62.8451 73.3159C57.7567 73.5088 49.1154 72.221 40.4472 63.5528C31.779 54.8846 30.4912 46.2433 30.6841 41.1549C30.7987 38.1323 32.5354 35.398 34.7674 33.166C38.482 29.4514 44.4084 29.9505 46.7669 34.1765Z" fill="white"/>
</svg>
