<svg width="153" height="153" viewBox="0 0 153 153" fill="none" xmlns="http://www.w3.org/2000/svg">
<circle cx="76.5" cy="76.5" r="76.5" fill="#FFE84E"/>
<path d="M101.95 84.1708L102.545 78.3308C102.862 75.2148 103.072 73.1572 102.907 71.8608L102.965 71.8612C105.654 71.8612 107.833 69.5604 107.833 66.7223C107.833 63.8842 105.654 61.5834 102.965 61.5834C100.276 61.5834 98.0965 63.8842 98.0965 66.7223C98.0965 68.0059 98.5423 69.1795 99.2794 70.0801C98.2212 70.7696 96.8377 72.2243 94.7552 74.414L94.7551 74.414L94.7551 74.414C93.1508 76.1009 92.3486 76.9444 91.4537 77.075C90.9579 77.1474 90.4526 77.073 89.9948 76.8602C89.1684 76.4761 88.6175 75.4333 87.5156 73.3479L81.7076 62.3556C81.0279 61.0691 80.4589 59.9923 79.9459 59.1258C82.0502 57.9926 83.4912 55.6832 83.4912 53.0186C83.4912 49.2344 80.585 46.1667 77 46.1667C73.415 46.1667 70.5088 49.2344 70.5088 53.0186C70.5088 55.6832 71.9498 57.9926 74.0541 59.1258C73.5411 59.9924 72.9722 61.069 72.2924 62.3556L66.4844 73.3479C65.3825 75.4333 64.8316 76.4761 64.0052 76.8602C63.5474 77.073 63.0422 77.1474 62.5463 77.075C61.6514 76.9444 60.8492 76.1009 59.2449 74.414C57.1624 72.2244 55.7788 70.7696 54.7206 70.0801C55.4577 69.1795 55.9035 68.0059 55.9035 66.7223C55.9035 63.8842 53.7238 61.5834 51.0351 61.5834C48.3463 61.5834 46.1667 63.8842 46.1667 66.7223C46.1667 69.5604 48.3463 71.8612 51.0351 71.8612L51.0926 71.8608C50.928 73.1572 51.1377 75.2148 51.4552 78.3308L52.0503 84.1708C52.3807 87.4125 52.6553 90.497 52.9918 93.2732H101.008C101.345 90.497 101.619 87.4126 101.95 84.1708Z" fill="white"/>
<path d="M73.469 107.833H80.531C89.7354 107.833 94.3375 107.833 97.4082 104.932C98.7484 103.666 99.5971 101.383 100.21 98.4121H53.7905C54.4029 101.383 55.2516 103.666 56.5918 104.932C59.6625 107.833 64.2646 107.833 73.469 107.833Z" fill="white"/>
</svg>
