<svg width="153" height="153" viewBox="0 0 153 153" fill="none" xmlns="http://www.w3.org/2000/svg">
<circle cx="76.5" cy="76.5" r="76.5" fill="#FFE84E"/>
<path fill-rule="evenodd" clip-rule="evenodd" d="M76.6798 39.323H76.3201C73.2129 39.3229 70.6218 39.3228 68.5649 39.5994C66.3938 39.8913 64.4336 40.5334 62.8584 42.1085C61.2833 43.6837 60.6411 45.6439 60.3492 47.815C60.151 49.2895 60.0949 52.8156 60.0791 55.8388C53.0855 56.0672 48.8864 56.8837 45.9683 59.8018C41.9166 63.8535 41.9166 70.3746 41.9166 83.4168C41.9166 96.459 41.9166 102.98 45.9683 107.032C50.02 111.083 56.5411 111.083 69.5832 111.083H83.4166C96.4588 111.083 102.98 111.083 107.032 107.032C111.083 102.98 111.083 96.459 111.083 83.4168C111.083 70.3746 111.083 63.8535 107.032 59.8018C104.114 56.8837 99.9145 56.0672 92.9209 55.8388C92.905 52.8156 92.8489 49.2895 92.6507 47.815C92.3588 45.6439 91.7167 43.6837 90.1415 42.1085C88.5664 40.5334 86.6062 39.8913 84.435 39.5994C82.3781 39.3228 79.787 39.3229 76.6798 39.323ZM87.7324 55.7566C87.7167 52.8286 87.6669 49.6775 87.5095 48.5062C87.2949 46.9104 86.9241 46.2273 86.4734 45.7767C86.0227 45.326 85.3397 44.9552 83.7438 44.7406C82.0733 44.516 79.8338 44.5105 76.5 44.5105C73.1661 44.5105 70.9266 44.516 69.2561 44.7406C67.6602 44.9552 66.9772 45.326 66.5265 45.7767C66.0759 46.2273 65.7051 46.9104 65.4905 48.5062C65.333 49.6775 65.2832 52.8286 65.2676 55.7566C66.6212 55.7501 68.0576 55.7501 69.5833 55.7501H83.4166C84.9423 55.7501 86.3787 55.7501 87.7324 55.7566ZM76.5 66.9897C77.9325 66.9897 79.0937 68.1509 79.0937 69.5834V69.6188C82.8591 70.5675 86.0104 73.5363 86.0104 77.6529C86.0104 79.0854 84.8491 80.2466 83.4166 80.2466C81.9841 80.2466 80.8229 79.0854 80.8229 77.6529C80.8229 76.3248 79.3503 74.4827 76.5 74.4827C73.6496 74.4827 72.177 76.3248 72.177 77.6529C72.177 78.981 73.6496 80.823 76.5 80.823C81.2895 80.823 86.0104 84.1422 86.0104 89.1807C86.0104 93.2972 82.8591 96.2661 79.0937 97.2147V97.2501C79.0937 98.6826 77.9325 99.8439 76.5 99.8439C75.0675 99.8439 73.9062 98.6826 73.9062 97.2501V97.2147C70.1408 96.2661 66.9895 93.2972 66.9895 89.1807C66.9895 87.7482 68.1508 86.5869 69.5833 86.5869C71.0158 86.5869 72.177 87.7482 72.177 89.1807C72.177 90.5088 73.6496 92.3508 76.5 92.3508C79.3503 92.3508 80.8229 90.5088 80.8229 89.1807C80.8229 87.8526 79.3503 86.0105 76.5 86.0105C71.7104 86.0105 66.9895 82.6914 66.9895 77.6529C66.9895 73.5363 70.1408 70.5675 73.9062 69.6188V69.5834C73.9062 68.1509 75.0675 66.9897 76.5 66.9897Z" fill="white"/>
</svg>
