<svg width="153" height="153" viewBox="0 0 153 153" fill="none" xmlns="http://www.w3.org/2000/svg">
<circle cx="76.5" cy="76.5" r="76.5" fill="#FFE84E"/>
<path fill-rule="evenodd" clip-rule="evenodd" d="M76.5 112.75C92.5163 112.75 105.5 99.7663 105.5 83.75C105.5 67.7337 92.5163 54.75 76.5 54.75C60.4837 54.75 47.5 67.7337 47.5 83.75C47.5 99.7663 60.4837 112.75 76.5 112.75ZM76.5 72.875C75.4703 72.875 74.7815 74.1105 73.4041 76.5816L73.0477 77.2209C72.6563 77.9231 72.4605 78.2742 72.1554 78.5059C71.8502 78.7375 71.4702 78.8235 70.71 78.9955L70.018 79.1521C67.3431 79.7573 66.0056 80.0599 65.6874 81.0832C65.3692 82.1064 66.281 83.1726 68.1046 85.305L68.5764 85.8567C69.0946 86.4627 69.3537 86.7657 69.4703 87.1405C69.5868 87.5154 69.5476 87.9196 69.4693 88.7281L69.398 89.4642C69.1223 92.3093 68.9844 93.7318 69.8175 94.3642C70.6505 94.9966 71.9028 94.4201 74.4073 93.2669L75.0552 92.9686C75.7669 92.6409 76.1228 92.477 76.5 92.477C76.8772 92.477 77.2331 92.6409 77.9448 92.9686L78.5927 93.2669C81.0972 94.4201 82.3495 94.9966 83.1825 94.3642C84.0156 93.7318 83.8777 92.3093 83.602 89.4642L83.5307 88.7281C83.4524 87.9196 83.4132 87.5153 83.5298 87.1405C83.6463 86.7657 83.9054 86.4627 84.4236 85.8568L84.8954 85.305C86.719 83.1726 87.6308 82.1064 87.3126 81.0832C86.9944 80.0599 85.6569 79.7573 82.982 79.1521L82.29 78.9955C81.5299 78.8235 81.1498 78.7375 80.8446 78.5059C80.5395 78.2742 80.3437 77.9231 79.9523 77.2209L79.5959 76.5816C78.2185 74.1105 77.5297 72.875 76.5 72.875Z" fill="white"/>
<path d="M72.875 40.25H80.125C86.9604 40.25 90.378 40.25 92.5015 42.3735C94.595 44.467 94.6246 47.8184 94.625 54.4626C89.3604 51.1976 83.1503 49.3125 76.5 49.3125C69.8496 49.3125 63.6396 51.1976 58.375 54.4626C58.3754 47.8184 58.405 44.467 60.4985 42.3735C62.6219 40.25 66.0396 40.25 72.875 40.25Z" fill="white"/>
</svg>
